<svg preserveAspectRatio="none" overflow="visible" style="display: block;" width="20" height="20" viewBox="0 0 20 20" fill="none" xmlns="http://www.w3.org/2000/svg">
<g id="Icon" opacity="0.6">
<path id="Vector" d="M7.758 6.617C7.85626 6.6122 7.9527 6.6447 8.028 6.708C8.10651 6.77586 8.15914 6.86878 8.177 6.971C8.29833 7.711 8.42667 8.33367 8.562 8.839C8.69733 9.345 8.86733 9.75833 9.072 10.079C9.27867 10.3957 9.54467 10.6457 9.87 10.829C10.1993 11.011 10.615 11.1497 11.117 11.245C11.6177 11.3363 12.2313 11.409 12.958 11.463C13.0651 11.4722 13.1655 11.5185 13.242 11.594C13.2795 11.6283 13.3095 11.67 13.3301 11.7165C13.3508 11.763 13.3616 11.8132 13.362 11.864C13.3659 11.9677 13.3293 12.0688 13.26 12.146C13.188 12.223 13.0908 12.2716 12.986 12.283C12.264 12.389 11.656 12.5057 11.162 12.633C10.668 12.7577 10.263 12.9217 9.947 13.125C9.63426 13.328 9.3766 13.6053 9.197 13.932C9.015 14.2613 8.873 14.6827 8.771 15.196C8.669 15.7053 8.582 16.333 8.51 17.079C8.49945 17.1823 8.45352 17.2787 8.38 17.352C8.31025 17.4237 8.21503 17.465 8.115 17.467C8.01564 17.4709 7.91871 17.4357 7.845 17.369C7.76706 17.3012 7.71481 17.2087 7.697 17.107C7.60798 16.5725 7.49924 16.0415 7.371 15.515C7.27958 15.1264 7.14961 14.7478 6.983 14.385C6.85036 14.0957 6.66368 13.8343 6.433 13.615C6.20231 13.3999 5.93148 13.2324 5.636 13.122C5.26602 12.9857 4.8835 12.8862 4.494 12.825C3.97037 12.736 3.4437 12.6659 2.915 12.615C2.80776 12.6106 2.70562 12.5681 2.627 12.495C2.55467 12.4216 2.51347 12.3231 2.512 12.22C2.50913 12.1699 2.51623 12.1197 2.53288 12.0723C2.54952 12.0249 2.5754 11.9813 2.609 11.944C2.68146 11.8629 2.78031 11.8101 2.888 11.795C3.49941 11.7132 4.10621 11.6001 4.706 11.456C5.19933 11.3287 5.60267 11.1627 5.916 10.958C6.23267 10.754 6.484 10.4873 6.67 10.158C6.856 9.82467 7.00033 9.40133 7.103 8.888C7.20433 8.37467 7.291 7.74467 7.363 6.998C7.37404 6.89495 7.42031 6.79888 7.494 6.726C7.5649 6.65723 7.65925 6.61891 7.758 6.617ZM14.487 2.5C14.5472 2.50501 14.6032 2.5325 14.644 2.577C14.6869 2.62425 14.7117 2.68519 14.714 2.749C14.7287 3.209 14.7573 3.59833 14.8 3.917C14.842 4.23633 14.9127 4.50167 15.012 4.713C15.1127 4.923 15.255 5.09633 15.439 5.233C15.6257 5.37033 15.8673 5.48767 16.164 5.585C16.4627 5.681 16.831 5.77433 17.269 5.865C17.3332 5.87865 17.3905 5.9144 17.431 5.966C17.471 6.016 17.4883 6.074 17.483 6.14C17.4805 6.17152 17.4718 6.20224 17.4574 6.23038C17.4429 6.25853 17.4231 6.28355 17.399 6.304C17.3488 6.34561 17.2852 6.36763 17.22 6.366C16.7727 6.37267 16.3933 6.39533 16.082 6.434C15.8131 6.45914 15.55 6.5277 15.303 6.637C15.0963 6.737 14.923 6.881 14.783 7.069C14.6263 7.29459 14.5049 7.54278 14.423 7.805C14.3203 8.107 14.2173 8.48267 14.114 8.932C14.0989 8.99362 14.0633 9.04827 14.013 9.087C13.9654 9.12509 13.9046 9.14271 13.844 9.136C13.8138 9.13351 13.7844 9.12508 13.7574 9.11117C13.7305 9.09727 13.7065 9.07818 13.687 9.055C13.6441 9.00775 13.6193 8.94681 13.617 8.883C13.6017 8.501 13.5777 8.16967 13.545 7.889C13.52 7.64472 13.4708 7.40353 13.398 7.169C13.3409 6.98211 13.2478 6.80819 13.124 6.657C13.0002 6.50801 12.8488 6.3844 12.678 6.293C12.4953 6.193 12.272 6.10267 12.008 6.022C11.742 5.93933 11.4267 5.855 11.062 5.769C10.9971 5.75754 10.9383 5.72354 10.896 5.673C10.8574 5.6225 10.8396 5.55921 10.846 5.496C10.8516 5.43406 10.881 5.37669 10.928 5.336C10.9794 5.29284 11.0439 5.26819 11.111 5.266C11.5577 5.262 11.9353 5.242 12.244 5.206C12.5553 5.16667 12.8143 5.09733 13.021 4.998C13.2297 4.89933 13.4037 4.757 13.543 4.571C13.683 4.38233 13.8047 4.13567 13.908 3.831C14.01 3.52767 14.1127 3.151 14.216 2.701C14.2306 2.63891 14.2668 2.58399 14.318 2.546C14.3665 2.50992 14.4269 2.4935 14.487 2.5Z" fill="black" fill-opacity="0.6"/>
</g>
</svg>
